<svg width="30" height="30" viewBox="0 0 30 30" fill="none" xmlns="http://www.w3.org/2000/svg">
<path d="M14.8932 6.5625C17.618 6.5625 19.5204 8.44016 19.5204 11.131V18.869C19.5204 21.5598 17.618 23.4375 14.8932 23.4375H8.37717C5.65239 23.4375 3.75 21.5598 3.75 18.869V11.131C3.75 8.44016 5.65239 6.5625 8.37717 6.5625H14.8932ZM23.9527 9.23886C24.4466 8.98759 25.026 9.01386 25.4974 9.31081C25.9687 9.60662 26.25 10.1206 26.25 10.6825V19.3182C26.25 19.8812 25.9687 20.3941 25.4974 20.6899C25.2397 20.8509 24.9517 20.9331 24.6615 20.9331C24.4196 20.9331 24.1777 20.876 23.9516 20.7607L22.2855 19.9201C21.669 19.6071 21.2864 18.979 21.2864 18.2811V11.7184C21.2864 11.0194 21.669 10.3913 22.2855 10.0806L23.9527 9.23886Z" fill="white"/>
</svg>
