<svg width="16" height="16" viewBox="0 0 16 16" fill="none" xmlns="http://www.w3.org/2000/svg">
<path d="M4 2C4 2.53043 3.78929 3.03914 3.41421 3.41421C3.03914 3.78929 2.53043 4 2 4C1.46957 4 0.960859 3.78929 0.585786 3.41421C0.210714 3.03914 0 2.53043 0 2C0 1.46957 0.210714 0.960859 0.585786 0.585786C0.960859 0.210714 1.46957 0 2 0C2.53043 0 3.03914 0.210714 3.41421 0.585786C3.78929 0.960859 4 1.46957 4 2ZM4 8C4 8.53043 3.78929 9.03914 3.41421 9.41421C3.03914 9.78929 2.53043 10 2 10C1.46957 10 0.960859 9.78929 0.585786 9.41421C0.210714 9.03914 0 8.53043 0 8C0 7.46957 0.210714 6.96086 0.585786 6.58579C0.960859 6.21071 1.46957 6 2 6C2.53043 6 3.03914 6.21071 3.41421 6.58579C3.78929 6.96086 4 7.46957 4 8ZM2 16C2.53043 16 3.03914 15.7893 3.41421 15.4142C3.78929 15.0391 4 14.5304 4 14C4 13.4696 3.78929 12.9609 3.41421 12.5858C3.03914 12.2107 2.53043 12 2 12C1.46957 12 0.960859 12.2107 0.585786 12.5858C0.210714 12.9609 0 13.4696 0 14C0 14.5304 0.210714 15.0391 0.585786 15.4142C0.960859 15.7893 1.46957 16 2 16ZM10 2C10 2.53043 9.78929 3.03914 9.41421 3.41421C9.03914 3.78929 8.53043 4 8 4C7.46957 4 6.96086 3.78929 6.58579 3.41421C6.21071 3.03914 6 2.53043 6 2C6 1.46957 6.21071 0.960859 6.58579 0.585786C6.96086 0.210714 7.46957 0 8 0C8.53043 0 9.03914 0.210714 9.41421 0.585786C9.78929 0.960859 10 1.46957 10 2ZM8 10C8.53043 10 9.03914 9.78929 9.41421 9.41421C9.78929 9.03914 10 8.53043 10 8C10 7.46957 9.78929 6.96086 9.41421 6.58579C9.03914 6.21071 8.53043 6 8 6C7.46957 6 6.96086 6.21071 6.58579 6.58579C6.21071 6.96086 6 7.46957 6 8C6 8.53043 6.21071 9.03914 6.58579 9.41421C6.96086 9.78929 7.46957 10 8 10ZM10 14C10 14.5304 9.78929 15.0391 9.41421 15.4142C9.03914 15.7893 8.53043 16 8 16C7.46957 16 6.96086 15.7893 6.58579 15.4142C6.21071 15.0391 6 14.5304 6 14C6 13.4696 6.21071 12.9609 6.58579 12.5858C6.96086 12.2107 7.46957 12 8 12C8.53043 12 9.03914 12.2107 9.41421 12.5858C9.78929 12.9609 10 13.4696 10 14ZM14 4C14.5304 4 15.0391 3.78929 15.4142 3.41421C15.7893 3.03914 16 2.53043 16 2C16 1.46957 15.7893 0.960859 15.4142 0.585786C15.0391 0.210714 14.5304 0 14 0C13.4696 0 12.9609 0.210714 12.5858 0.585786C12.2107 0.960859 12 1.46957 12 2C12 2.53043 12.2107 3.03914 12.5858 3.41421C12.9609 3.78929 13.4696 4 14 4ZM16 8C16 8.53043 15.7893 9.03914 15.4142 9.41421C15.0391 9.78929 14.5304 10 14 10C13.4696 10 12.9609 9.78929 12.5858 9.41421C12.2107 9.03914 12 8.53043 12 8C12 7.46957 12.2107 6.96086 12.5858 6.58579C12.9609 6.21071 13.4696 6 14 6C14.5304 6 15.0391 6.21071 15.4142 6.58579C15.7893 6.96086 16 7.46957 16 8ZM14 16C14.5304 16 15.0391 15.7893 15.4142 15.4142C15.7893 15.0391 16 14.5304 16 14C16 13.4696 15.7893 12.9609 15.4142 12.5858C15.0391 12.2107 14.5304 12 14 12C13.4696 12 12.9609 12.2107 12.5858 12.5858C12.2107 12.9609 12 13.4696 12 14C12 14.5304 12.2107 15.0391 12.5858 15.4142C12.9609 15.7893 13.4696 16 14 16Z" fill="#F8F8F8"/>
</svg>
