<svg width="18" height="18" viewBox="0 0 18 18" fill="none" xmlns="http://www.w3.org/2000/svg">
<path d="M11.9167 11.9167H15.6667C15.8877 11.9167 16.0997 11.8289 16.2559 11.6726C16.4122 11.5163 16.5 11.3043 16.5 11.0833V2.33333C16.5 2.11232 16.4122 1.90036 16.2559 1.74408C16.0997 1.5878 15.8877 1.5 15.6667 1.5H6.91668C6.69566 1.5 6.4837 1.5878 6.32742 1.74408C6.17114 1.90036 6.08334 2.11232 6.08334 2.33333V6.08333" stroke="#F8F8F8" stroke-width="1.66667" stroke-linecap="round" stroke-linejoin="round"/>
<path d="M6.08333 6.08334H2.33333C2.11232 6.08334 1.90036 6.17114 1.74408 6.32742C1.5878 6.4837 1.5 6.69566 1.5 6.91668V15.6667C1.5 15.8877 1.5878 16.0997 1.74408 16.2559C1.90036 16.4122 2.11232 16.5 2.33333 16.5H11.0833C11.3043 16.5 11.5163 16.4122 11.6726 16.2559C11.8289 16.0997 11.9167 15.8877 11.9167 15.6667V11.9167" stroke="#F8F8F8" stroke-width="1.66667" stroke-linecap="round" stroke-linejoin="round"/>
<path d="M11.0833 6.08334H6.91668C6.45644 6.08334 6.08334 6.45644 6.08334 6.91668V11.0833C6.08334 11.5436 6.45644 11.9167 6.91668 11.9167H11.0833C11.5436 11.9167 11.9167 11.5436 11.9167 11.0833V6.91668C11.9167 6.45644 11.5436 6.08334 11.0833 6.08334Z" stroke="#F8F8F8" stroke-width="1.66667" stroke-linecap="round" stroke-linejoin="round"/>
</svg>
