<svg width="30" height="30" viewBox="0 0 30 30" fill="none" xmlns="http://www.w3.org/2000/svg">
<path d="M14.9878 7C17.4427 7 19.4181 8.93183 19.4181 11.3168V12.5435C20.796 12.9736 21.8 14.2209 21.8 15.7107V19.6602C21.8 21.5046 20.2709 23 18.3857 23H11.615C9.72904 23 8.19995 21.5046 8.19995 19.6602V15.7107C8.19995 14.2209 9.20471 12.9736 10.5818 12.5435V11.3168C10.5899 8.93183 12.5653 7 14.9878 7ZM14.9959 16.1074C14.6057 16.1074 14.2887 16.4175 14.2887 16.7991V18.5639C14.2887 18.9535 14.6057 19.2635 14.9959 19.2635C15.3942 19.2635 15.7112 18.9535 15.7112 18.5639V16.7991C15.7112 16.4175 15.3942 16.1074 14.9959 16.1074ZM15.004 8.39124C13.3538 8.39124 12.0125 9.69502 12.0044 11.3009V12.371H17.9955V11.3168C17.9955 9.70297 16.6542 8.39124 15.004 8.39124Z" fill="white"/>
</svg>
