<svg width="80" height="80" viewBox="0 0 80 80" fill="none" xmlns="http://www.w3.org/2000/svg">
<path fill-rule="evenodd" clip-rule="evenodd" d="M26.4327 23.8938L20.2547 28.0598C20.0948 28.1664 20 28.3461 20 28.5396V36.1056C20 36.4235 20.2587 36.6822 20.5785 36.6822C20.693 36.6822 20.8056 36.6486 20.9003 36.5834L27.0783 32.4174C27.2383 32.3108 27.333 32.1311 27.333 31.9376V24.3716C27.333 24.0537 27.0744 23.7951 26.7545 23.7951C26.64 23.7951 26.5275 23.8286 26.4327 23.8938ZM29.5562 22.0931V48.7558C29.5562 49.0737 29.8149 49.3323 30.1328 49.3323C30.2493 49.3323 30.3598 49.2988 30.4566 49.2336L38.6347 43.719C38.7926 43.6104 38.8894 43.4308 38.8894 43.2393V16.5785C38.8894 16.2587 38.6307 16 38.3109 16C38.1964 16 38.0838 16.0336 37.9871 16.0987L29.8109 21.6153C29.651 21.7219 29.5562 21.9016 29.5562 22.0931ZM41.1106 22.0931V48.7558C41.1106 49.0737 41.3693 49.3323 41.6891 49.3323C41.8036 49.3323 41.9162 49.2988 42.011 49.2336L50.189 43.719C50.349 43.6104 50.4438 43.4308 50.4438 43.2393V16.5785C50.4438 16.2587 50.1851 16 49.8652 16C49.7507 16 49.6382 16.0336 49.5434 16.0987L41.3653 21.6153C41.2054 21.7219 41.1106 21.9016 41.1106 22.0931ZM59.0977 23.8938L52.9217 28.0598C52.7617 28.1664 52.667 28.3461 52.667 28.5396V36.1056C52.667 36.4235 52.9256 36.6822 53.2435 36.6822C53.36 36.6822 53.4725 36.6486 53.5673 36.5834L59.7453 32.4174C59.9033 32.3108 60 32.1311 60 31.9376V24.3716C60 24.0537 59.7413 23.7951 59.4215 23.7951C59.307 23.7951 59.1944 23.8286 59.0977 23.8938Z" fill="#B5C5FC"/>
<path d="M26.5788 64L27.3909 63.2114V60L26.5788 59.2H21.6476V57.6H25.755V58.4H27.3909V56.8114L26.5788 56H20.8121L20 56.8114V60.24L20.8121 60.8114H25.755V62.4H21.6476V61.6114H20V63.2114L20.8121 64H26.5788Z" fill="#B5C5FC"/>
<path d="M32.7403 64V57.6H35.6002V56H28.2093V57.6H31.0927V64H32.7403Z" fill="#B5C5FC"/>
<path d="M37.4824 60.0114V59.2114L39.1183 57.6H41.5897V60.0114H37.4824ZM37.4824 64V61.6114H41.5897V64H43.2256V56H38.2944L35.8347 58.4114V64H37.4824Z" fill="#B5C5FC"/>
<path d="M46.0475 60.0114V57.6H50.1548V60.0114H46.0475ZM51.7907 64V62.4L50.9787 61.6114L51.7907 60.8114V56.8114L50.9787 56H44.3998V64H46.0475V61.6114H48.5072L49.331 62.4L50.1548 63.2114V64H51.7907Z" fill="#B5C5FC"/>
<path d="M57.1402 64V57.6H60V56H52.6091V57.6H55.4925V64H57.1402Z" fill="#B5C5FC"/>
</svg>
