<svg width="24" height="22" viewBox="0 0 24 22" fill="none" xmlns="http://www.w3.org/2000/svg">
<path fill-rule="evenodd" clip-rule="evenodd" d="M21.5839 2.54113C20.5163 1.47125 19.065 0.875 17.5564 0.875H6.4425C3.48293 0.875 1.06123 3.11778 0.77774 5.99089L9.91601 11.2559C11.1433 11.9629 12.653 11.9683 13.8852 11.2699L23.2206 5.97866C23.0886 4.68454 22.5152 3.47145 21.5839 2.54113ZM23.25 8.26092L14.8714 13.0098C13.0231 14.0574 10.7585 14.0494 8.91758 12.9888L0.75 8.2831V15.4438C0.75 18.5825 3.30263 21.125 6.4425 21.125H17.5564C20.6963 21.125 23.25 18.5825 23.25 15.4438V8.26092Z" fill="white"/>
</svg>
