<svg width="24" height="24" viewBox="0 0 24 24" fill="none" xmlns="http://www.w3.org/2000/svg">
<path d="M12 0C18.6139 0 24 5.3835 24 12.0069C24 18.6165 18.6139 24 12 24C5.3861 24 0 18.6165 0 12.0069C0 5.3835 5.3861 0 12 0ZM10.6332 7.23589C10.3784 7.23589 10.1351 7.29378 9.90347 7.40955C9.6139 7.57164 9.38224 7.82634 9.25483 8.12735C9.17375 8.33575 9.04633 8.96093 9.04633 8.9725C8.91892 9.65557 8.84942 10.767 8.84942 11.9942C8.84942 13.1647 8.91892 14.2287 9.02317 14.9233C9.03475 14.9349 9.16216 15.7106 9.30116 15.9768C9.55598 16.4631 10.0541 16.7641 10.5869 16.7641H10.6332C10.9807 16.7525 11.7104 16.4515 11.7104 16.4399C12.9382 15.9305 15.3591 14.3444 16.332 13.2909L16.4015 13.2214C16.529 13.0941 16.6911 12.8973 16.7259 12.8509C16.9112 12.6078 17.0039 12.3068 17.0039 12.0069C17.0039 11.67 16.8996 11.3575 16.7027 11.1028C16.6564 11.0564 16.4826 10.8596 16.3205 10.6975C15.3707 9.67873 12.8919 8.01158 11.5946 7.50217C11.3977 7.42229 10.8996 7.24747 10.6332 7.23589Z" fill="white"/>
</svg>
