<svg width="24" height="24" viewBox="0 0 24 24" fill="none" xmlns="http://www.w3.org/2000/svg">
<path d="M11.9505 8.96612L7.86491 13.0517C7.62571 13.2909 7.49406 13.6171 7.50021 13.9553L7.5238 15.2532C7.53599 15.9235 8.07648 16.464 8.74683 16.4762L10.0447 16.4998C10.3829 16.5059 10.7091 16.3743 10.9483 16.1351L16.1351 10.9483C16.6216 10.4618 16.6216 9.67291 16.1351 9.18636L14.8136 7.86491C14.3271 7.37836 13.5382 7.37836 13.0517 7.86491L11.9505 8.96612ZM11.9505 8.96612L13.4922 10.5078M7 20H17C18.6569 20 20 18.6569 20 17V7C20 5.34315 18.6569 4 17 4H7C5.34315 4 4 5.34315 4 7V17C4 18.6569 5.34315 20 7 20Z" stroke="white" stroke-linecap="round" stroke-linejoin="round"/>
</svg>
