<svg width="20" height="20" viewBox="0 0 20 20" fill="none" xmlns="http://www.w3.org/2000/svg">
<g opacity="0.75">
<path fill-rule="evenodd" clip-rule="evenodd" d="M16.6669 13.8095V4.28571C16.6669 3.78054 16.4662 3.29605 16.109 2.93884C15.7517 2.58163 15.2673 2.38095 14.7621 2.38095H7.14304C6.63787 2.38095 6.15339 2.58163 5.79617 2.93884C5.43896 3.29605 5.23828 3.78054 5.23828 4.28571V13.8095C5.23828 14.3147 5.43896 14.7992 5.79617 15.1564C6.15339 15.5136 6.63787 15.7143 7.14304 15.7143H14.7621C15.2673 15.7143 15.7517 15.5136 16.109 15.1564C16.4662 14.7992 16.6669 14.3147 16.6669 13.8095Z" stroke="#F8F8F8" stroke-width="0.952381" stroke-linecap="round" stroke-linejoin="round"/>
<path d="M5.05256 4.70001L3.14399 5.39525C2.66944 5.5681 2.28296 5.92234 2.06954 6.38008C1.85612 6.83782 1.83322 7.36159 2.00589 7.8362L5.26304 16.7857C5.34862 17.0208 5.47967 17.2367 5.64871 17.4212C5.81776 17.6056 6.02148 17.7549 6.24824 17.8606C6.475 17.9663 6.72036 18.0263 6.9703 18.0371C7.22024 18.048 7.46988 18.0095 7.70494 17.9238L13.0078 15.8305M8.09542 7.14287H12.8573M8.09542 9.04763H13.8097M8.09542 10.9524H10.9526" stroke="#F8F8F8" stroke-width="0.952381" stroke-linecap="round" stroke-linejoin="round"/>
</g>
</svg>
