<svg width="40" height="40" viewBox="0 0 40 40" fill="none" xmlns="http://www.w3.org/2000/svg">
<path d="M6.13333 23.406C5.56754 23.406 5.02492 23.6308 4.62484 24.0309C4.22476 24.431 4 24.9736 4 25.5394C4 26.1052 4.22476 26.6478 4.62484 27.0479C5.02492 27.4479 5.56754 27.6727 6.13333 27.6727L6.13333 23.406Z" fill="white"/>
<path d="M33.8667 27.6727C34.4325 27.6727 34.9751 27.4479 35.3752 27.0479C35.7752 26.6478 36 26.1052 36 25.5394C36 24.9736 35.7752 24.431 35.3752 24.0309C34.9751 23.6308 34.4325 23.406 33.8667 23.406V27.6727Z" fill="white"/>
<path fill-rule="evenodd" clip-rule="evenodd" d="M7.2 20.206C7.2 19.0278 8.15513 18.0727 9.33333 18.0727H16.0381C16.0381 18.0727 18.4762 18.0727 20 19.9013C21.5238 18.0727 23.9619 18.0727 23.9619 18.0727H30.6667C31.8449 18.0727 32.8 19.0278 32.8 20.206V30.5679C32.8 31.7462 31.8449 32.7013 30.6667 32.7013H23.9619C23.9619 32.7013 21.8629 32.7013 20.5212 33.9254C20.2401 34.1819 19.7599 34.1819 19.4788 33.9254C18.1371 32.7013 16.0381 32.7013 16.0381 32.7013H9.33333C8.15513 32.7013 7.2 31.7462 7.2 30.5679V20.206ZM9.78726 20.8415C9.19815 20.8415 8.72059 21.3191 8.72059 21.9082C8.72059 22.4973 9.19815 22.9748 9.78726 22.9748L15.2341 22.9748C15.8232 22.9748 16.3007 22.4973 16.3007 21.9082C16.3007 21.3191 15.8232 20.8415 15.2341 20.8415L9.78726 20.8415ZM8.72059 25.2913C8.72059 24.7022 9.19815 24.2246 9.78726 24.2246L15.2341 24.2247C15.8232 24.2247 16.3007 24.7022 16.3007 25.2913C16.3007 25.8804 15.8232 26.358 15.2341 26.358L9.78726 26.358C9.19815 26.358 8.72059 25.8804 8.72059 25.2913Z" fill="white"/>
<path d="M24.8762 10.4537C24.8762 12.9784 22.8295 15.0251 20.3048 15.0251C17.78 15.0251 15.7333 12.9784 15.7333 10.4537C15.7333 7.92893 17.78 5.88223 20.3048 5.88223C22.8295 5.88223 24.8762 7.92893 24.8762 10.4537Z" fill="white"/>
</svg>
